<svg xmlns="http://www.w3.org/2000/svg" width="51" height="41" viewBox="0 0 51 41" fill="none">
    <g clip-path="url(#clip0_473_388)">
        <path d="M5.62604 5.49086C5.52981 2.7277 7.68267 0.179688 10.5927 0.179688H40.411C43.321 0.179688 45.4739 2.7277 45.3776 5.49086C45.2852 8.14515 45.4052 11.5835 46.2705 14.387C47.1386 17.1991 48.6025 18.9767 51 19.2051V21.7949C48.6025 22.0233 47.1386 23.8009 46.2705 26.613C45.4052 29.4165 45.2852 32.8549 45.3776 35.5092C45.4739 38.2723 43.321 40.8203 40.411 40.8203H10.5927C7.68267 40.8203 5.52981 38.2723 5.62614 35.5092C5.71847 32.8549 5.59844 29.4165 4.73304 26.613C3.86504 23.8009 2.3976 22.0233 0 21.7949V19.2051C2.3975 18.9767 3.86504 17.1991 4.73304 14.387C5.59844 11.5835 5.71847 8.14515 5.62604 5.49086Z" fill="url(#paint0_linear_473_388)"/>
        <g filter="url(#filter0_d_473_388)">
            <path d="M26.6061 31.3032C31.3173 31.3032 34.1562 28.9965 34.1562 25.1917C34.1562 22.3157 32.1306 20.2335 29.1228 19.9039V19.7841C31.3326 19.4246 33.0667 17.3725 33.0667 15.0806C33.0667 11.8151 30.4886 9.68799 26.56 9.68799H17.7207V31.3032H26.6061ZM21.1582 12.4292H25.7314C28.2174 12.4292 29.6292 13.5377 29.6292 15.5449C29.6292 17.687 27.9872 18.8853 25.0101 18.8853H21.1582V12.4292ZM21.1582 28.5621V21.4469H25.7006C28.954 21.4469 30.642 22.6452 30.642 24.982C30.642 27.3187 29.0001 28.5621 25.9001 28.5621H21.1582Z" fill="url(#paint1_linear_473_388)"/>
            <path d="M26.6061 31.3032C31.3173 31.3032 34.1562 28.9965 34.1562 25.1917C34.1562 22.3157 32.1306 20.2335 29.1228 19.9039V19.7841C31.3326 19.4246 33.0667 17.3725 33.0667 15.0806C33.0667 11.8151 30.4886 9.68799 26.56 9.68799H17.7207V31.3032H26.6061ZM21.1582 12.4292H25.7314C28.2174 12.4292 29.6292 13.5377 29.6292 15.5449C29.6292 17.687 27.9872 18.8853 25.0101 18.8853H21.1582V12.4292ZM21.1582 28.5621V21.4469H25.7006C28.954 21.4469 30.642 22.6452 30.642 24.982C30.642 27.3187 29.0001 28.5621 25.9001 28.5621H21.1582Z" stroke="white"/>
        </g>
    </g>
    <defs>
        <filter id="filter0_d_473_388" x="1.2207" y="-2.81201" width="49.4355" height="54.6152" filterUnits="userSpaceOnUse" color-interpolation-filters="sRGB">
            <feFlood flood-opacity="0" result="BackgroundImageFix"/>
            <feColorMatrix in="SourceAlpha" type="matrix" values="0 0 0 0 0 0 0 0 0 0 0 0 0 0 0 0 0 0 127 0" result="hardAlpha"/>
            <feOffset dy="4"/>
            <feGaussianBlur stdDeviation="8"/>
            <feColorMatrix type="matrix" values="0 0 0 0 0 0 0 0 0 0 0 0 0 0 0 0 0 0 0.15 0"/>
            <feBlend mode="normal" in2="BackgroundImageFix" result="effect1_dropShadow_473_388"/>
            <feBlend mode="normal" in="SourceGraphic" in2="effect1_dropShadow_473_388" result="shape"/>
        </filter>
        <linearGradient id="paint0_linear_473_388" x1="7.57818" y1="1.25527" x2="52.1435" y2="36.6312" gradientUnits="userSpaceOnUse">
            <stop stop-color="#9013FE"/>
            <stop offset="1" stop-color="#6610F2"/>
        </linearGradient>
        <linearGradient id="paint1_linear_473_388" x1="19.2753" y1="11.1107" x2="29.2368" y2="27.9578" gradientUnits="userSpaceOnUse">
            <stop stop-color="white"/>
            <stop offset="1" stop-color="#F1E5FC"/>
        </linearGradient>
        <clipPath id="clip0_473_388">
            <rect width="51" height="40.6406" fill="white" transform="translate(0 0.179688)"/>
        </clipPath>
    </defs>
</svg>