<svg xmlns="http://www.w3.org/2000/svg" width="31" height="19" viewBox="0 0 31 19" class="dark-icon">
    <path d="M7.84375 18.5708C5.375 18.5708 3.44792 17.8104 2.0625 16.2896C0.6875 14.7687 0 12.6385 0 9.89893C0 7.19059 0.666667 5.02393 2 3.39893C3.33333 1.76351 5.13021 0.945801 7.39062 0.945801C9.39062 0.945801 10.9688 1.64372 12.125 3.03955C13.2812 4.43538 13.8594 6.33122 13.8594 8.72705V9.97705H1.625C1.64583 12.3104 2.1875 14.0916 3.25 15.3208C4.32292 16.55 5.85417 17.1646 7.84375 17.1646C8.8125 17.1646 9.66146 17.0968 10.3906 16.9614C11.1302 16.826 12.0625 16.5343 13.1875 16.0864V17.4927C12.2292 17.9093 11.3438 18.1906 10.5312 18.3364C9.71875 18.4927 8.82292 18.5708 7.84375 18.5708ZM7.39062 2.3208C5.75521 2.3208 4.44271 2.86247 3.45312 3.9458C2.46354 5.01872 1.88542 6.5708 1.71875 8.60205H12.2188C12.2188 6.6333 11.7917 5.09684 10.9375 3.99268C10.0833 2.87809 8.90104 2.3208 7.39062 2.3208Z"/>
    <path d="M22.7188 9.52393L16.7969 1.27393H18.5781L23.6406 8.43018L28.6562 1.27393H30.3594L24.5312 9.52393L30.7812 18.2583H28.9844L23.6406 10.6802L18.2656 18.2583H16.5625L22.7188 9.52393Z"/>
</svg>