<svg width="1260" height="512" viewBox="0 0 1260 512" xmlns="http://www.w3.org/2000/svg">
    <path d="M628.57 0C609.853 78.6111 559.177 111.023 477.276 111.023H176.249C106.826 111.023 28.8396 129.527 5.44375 202.756C1.99842 190.451 0.168817 177.759 0 164.993L0 153.413C0 67.8474 81.8703 0 154.413 0H628.57ZM630.925 360.825C630.925 449.504 549.024 512 475.717 512H154.413C88.9044 512 15.5973 465.74 2.3243 400.977H428.16C473.392 400.977 470.976 359.343 470.976 359.343V357.801C470.976 345.465 469.416 317.71 428.16 317.71H154.413C115.42 317.71 70.1877 300.748 43.6723 269.122C37.1317 258.116 33.6303 245.604 33.5188 232.84C33.5188 170.374 106.918 144.947 160.652 144.947C160.028 147.724 159.761 150.569 159.857 153.413V164.993C159.857 175.786 160.652 206.626 201.969 206.626H475.717C564.621 206.626 630.925 280.642 630.925 360.825ZM693.283 265.978V0H852.314V366.993H811.027C742.399 366.993 703.406 333.069 693.283 265.978ZM1259.46 400.917C1254.78 448.718 1209.55 511.94 1130.01 511.94H693.283V352.359C726.924 391.665 775.857 400.161 811.027 400.917H1259.46Z"/>
</svg>
