<svg xmlns="http://www.w3.org/2000/svg" width="76" height="83" viewBox="0 0 76 83" fill="none" class="icon">
    <path d="M52.3186 8.70375L37.9885 1.21436L23.6582 8.70375M52.3186 8.70375L37.9885 16.1931M52.3186 8.70375V17.7116M23.6582 8.70375L37.9885 16.1931M23.6582 8.70375V17.6251M37.9885 16.1931V26.3786M52.3186 17.7116L60.6695 13.3472L74.9998 20.8365M52.3186 17.7116L46.3394 20.8365M23.6582 17.6251L29.803 20.8365M23.6582 17.6251L15.4727 13.3472L1.14258 20.8365M37.9885 26.3786L46.3394 30.7431M37.9885 26.3786L29.803 30.6566M29.803 20.8365L15.4727 28.326M29.803 20.8365V30.6566M15.4727 28.326V68.7542M15.4727 28.326L1.14258 20.8365M29.803 30.6566L23.6582 33.8681M15.4727 68.7542L1.14258 61.265V20.8365M15.4727 68.7542L23.6582 64.4762M23.6582 64.4762V74.2965L37.9885 81.7857M23.6582 64.4762V33.8681M74.9998 20.8365V61.265L60.6695 68.7542M74.9998 20.8365L60.6695 28.326M60.6695 68.7542V28.326M60.6695 68.7542L52.3186 64.3899M60.6695 28.326L46.3394 20.8365M52.3186 64.3899V33.8681M52.3186 64.3899V74.2965L37.9885 81.7857M46.3394 20.8365V30.7431M46.3394 30.7431L52.3186 33.8681M52.3186 33.8681L37.9885 41.3575M37.9885 41.3575V81.7857M37.9885 41.3575L23.6582 33.8681"
          stroke="url(#monoliths_gradient)" stroke-width="2" stroke-linejoin="round"/>
    <defs>
        <linearGradient id="monoliths_gradient" class="section-icons-gradient" x1="38.2678" y1="0.648346" x2="38.2678"
                        y2="81.2197" gradientUnits="userSpaceOnUse">
            <stop class="first-color" stop-color="#2A2522"/>
            <stop class="second-color" offset="1" stop-color="#413935"/>
        </linearGradient>
    </defs>
</svg>