<svg viewBox="0 0 73 83" fill="none" xmlns="http://www.w3.org/2000/svg" class="icon">
    <path d="M36.75 41.5L13.25 28.0716M36.75 41.5L60.25 28.0716M36.75 41.5V54.9285M13.25 28.0716L25 21.3572M13.25 28.0716V41.5M60.25 28.0716L48.5 21.3572M60.25 28.0716V41.5M36.75 54.9285L25 48.2144L13.25 41.5M36.75 54.9285L60.25 41.5M36.75 14.6429L25 7.92864M36.75 14.6429L48.5 7.92864M36.75 14.6429V28.0716M25 7.92864L36.75 1.21436L48.5 7.92864M25 7.92864V21.3572M48.5 7.92864V21.3572M36.75 28.0716L25 21.3572M36.75 28.0716L48.5 21.3572M13.25 41.5L1.5 48.2144M1.5 48.2144V61.6429L36.75 81.7857M1.5 48.2144L13.25 54.9285L36.75 68.3572M36.75 81.7857L72 61.6429V48.2144M36.75 81.7857V68.3572M36.75 68.3572L48.5 61.6429L60.25 54.9285L72 48.2144M72 48.2144L60.25 41.5"
          stroke="url(#stack_gradient)" stroke-width="2" stroke-linejoin="round"/>
    <defs>
        <linearGradient id="stack_gradient" class="section-icons-gradient" x1="36.9377" y1="0.648346" x2="36.9377" y2="81.2197"
                        gradientUnits="userSpaceOnUse">
            <stop class="first-color" stop-color="#2A2522"/>
            <stop class="second-color" offset="1" stop-color="#413935"/>
        </linearGradient>
    </defs>
</svg>
