<svg xmlns="http://www.w3.org/2000/svg" width="51" height="51" viewBox="0 0 51 51" fill="none">
    <path d="M50.1511 20.3802L50.0794 20.197L43.1379 2.08107C42.9967 1.72601 42.7466 1.42481 42.4236 1.22069C42.1003 1.02003 41.7233 0.923393 41.3434 0.943813C40.9635 0.964233 40.599 1.10073 40.2992 1.33488C40.0026 1.57574 39.7875 1.90213 39.6831 2.26961L34.9961 16.6094H16.0172L11.3302 2.26961C11.2285 1.90013 11.013 1.57211 10.7141 1.33222C10.4143 1.09807 10.0498 0.961576 9.66987 0.941157C9.28997 0.920737 8.91295 1.01738 8.58971 1.21803C8.26741 1.42298 8.01755 1.72392 7.87538 2.07842L0.920603 20.1863L0.851559 20.3696C-0.147703 22.9805 -0.271045 25.8455 0.500128 28.5326C1.2713 31.2198 2.89518 33.5833 5.12693 35.267L5.15083 35.2856L5.21456 35.3307L15.7888 43.2494L21.0202 47.2088L24.2068 49.6147C24.5795 49.8977 25.0346 50.0509 25.5027 50.0509C25.9707 50.0509 26.4258 49.8977 26.7985 49.6147L29.9852 47.2088L35.2165 43.2494L45.8545 35.2829L45.881 35.2617C48.1078 33.5777 49.7279 31.2166 50.4979 28.5331C51.2679 25.8495 51.1462 22.9886 50.1511 20.3802Z"
          fill="#E24329"/>
    <path d="M50.1511 20.3803L50.0794 20.197C46.6971 20.8913 43.5098 22.324 40.7453 24.3927L25.5 35.9203C30.6915 39.8478 35.2112 43.2601 35.2112 43.2601L45.8492 35.2936L45.8757 35.2724C48.1057 33.5885 49.7283 31.2258 50.4993 28.54C51.2704 25.8542 51.1482 22.9906 50.1511 20.3803Z"
          fill="#FC6D26"/>
    <path d="M15.7891 43.26L21.0204 47.2194L24.207 49.6252C24.5798 49.9083 25.0349 50.0615 25.5029 50.0615C25.9709 50.0615 26.4261 49.9083 26.7988 49.6252L29.9854 47.2194L35.2168 43.26C35.2168 43.26 30.6918 39.837 25.5003 35.9202C20.3087 39.837 15.7891 43.26 15.7891 43.26Z"
          fill="#FCA326"/>
    <path d="M10.2521 24.3926C7.48978 22.3196 4.3032 20.8832 0.920603 20.1863L0.851559 20.3695C-0.147702 22.9804 -0.271045 25.8454 0.500128 28.5326C1.2713 31.2197 2.89518 33.5833 5.12693 35.2669L5.15083 35.2855L5.21456 35.3307L15.7888 43.2494C15.7888 43.2494 20.3032 39.8371 25.5 35.9096L10.2521 24.3926Z"
          fill="#FC6D26"/>
</svg>